# xmcd CD database file
#
# Track frame offsets:
#	150
#	14890
#	32580
#	48587
#	68582
#	93356
#	108266
#	123082
#	140116
#	159179
#	171143
#
# Disc length: 2482 seconds
#
# Revision: 1
# Processed by: cddbd v1.5.2PL0 Copyright (c) Steve Scherf et al.
# Submitted via: CDex 1.51
#
DISCID=8c09b00b
DTITLE=Blinde Ed - Ed Rocks
DYEAR=2008
DGENRE=Blues
TTITLE0=Burning Love
TTITLE1=Ring Of Fire
TTITLE2=Movie Star (Harpo)
TTITLE3=Dreams To Remember (Otis Redding)
TTITLE4=Annabel (B de Groot)
TTITLE5=Can't Get Enough Of Your Love
TTITLE6=Shake A Tail Feather
TTITLE7=Sweet Godess Of Love And Bear
TTITLE8=Den Egelantier
TTITLE9=Swinging On A Star
TTITLE10=Deurdonderen (Normaal)
EXTD=YEAR: 2008
EXTT0=
EXTT1=
EXTT2=
EXTT3=
EXTT4=
EXTT5=
EXTT6=
EXTT7=
EXTT8=
EXTT9=
EXTT10=
PLAYORDER=
